<svg width="561" height="672" viewBox="0 0 561 672" fill="none" xmlns="http://www.w3.org/2000/svg">
<path d="M471.069 169.368H85.3887V510.806H471.069V169.368Z" fill="#010130"/>
<path d="M33.8066 589.742H46.0234V670.863H33.8066V589.742Z" fill="#010130"/>
<path d="M63.0215 589.742H74.5666L111.017 647.399H111.235V589.742H123.452V670.863H111.907L75.456 613.206H75.2382V670.863H63.0215V589.742Z" fill="#010130"/>
<path d="M141.459 651.161C144.545 653.676 148.084 655.648 152.042 657.095C155.999 658.542 160.101 659.266 164.313 659.266C169.214 659.266 173.099 658.235 175.967 656.19C178.835 654.146 180.269 651.396 180.269 647.977C180.269 645.01 179.398 642.568 177.673 640.632C175.93 638.696 173.298 637.502 169.74 637.05C168.688 636.905 166.727 636.634 163.859 636.254C161.971 635.946 160.392 635.729 159.103 635.566C152.314 634.571 147.05 632.038 143.31 627.932C139.571 623.825 137.701 618.778 137.701 612.771C137.701 605.716 140.043 599.999 144.726 595.621C149.409 591.261 155.817 589.072 163.968 589.072C168.724 589.072 173.28 589.813 177.655 591.297C182.03 592.78 186.187 594.843 190.108 597.502L183.319 607.633C180.214 605.661 177.001 604.124 173.643 603.02C170.285 601.916 166.872 601.374 163.405 601.374C159.484 601.374 156.253 602.387 153.73 604.395C151.207 606.403 149.936 609.28 149.936 612.988C149.936 615.503 150.88 617.692 152.768 619.592C154.656 621.491 157.524 622.74 161.372 623.355C164.385 623.807 167.417 624.223 170.43 624.603C177.6 625.435 183.064 628.058 186.84 632.473C190.616 636.887 192.504 642.043 192.504 647.977C192.504 655.34 189.981 661.111 184.916 665.29C179.851 669.469 172.953 671.55 164.204 671.55C152.06 671.55 141.785 667.823 133.417 660.388L141.459 651.161Z" fill="#010130"/>
<path d="M219.113 600.687H197.039V589.742H253.403V600.687H231.329V670.881H219.113V600.687Z" fill="#010130"/>
<path d="M262.004 589.742H274.221V670.863H262.004V589.742Z" fill="#010130"/>
<path d="M304.897 600.687H282.823V589.742H339.187V600.687H317.114V670.881H304.897V600.687Z" fill="#010130"/>
<path d="M346.324 589.742H358.541V642.044C358.541 647.435 360.066 651.65 363.134 654.69C366.183 657.729 370.14 659.249 374.969 659.249C379.798 659.249 383.737 657.729 386.805 654.69C389.854 651.65 391.397 647.435 391.397 642.044V589.742H403.614V643.401C403.614 647.507 402.888 651.306 401.417 654.798C399.947 658.29 397.914 661.293 395.3 663.808C392.686 666.304 389.655 668.24 386.187 669.561C382.72 670.881 378.981 671.551 374.987 671.551C370.994 671.551 367.345 670.881 363.841 669.561C360.338 668.24 357.27 666.304 354.674 663.808C352.079 661.293 350.027 658.308 348.557 654.798C347.087 651.306 346.361 647.507 346.361 643.401V589.742H346.324Z" fill="#010130"/>
<path d="M432.811 600.687H410.737V589.742H467.101V600.687H445.028V670.881H432.811V600.687Z" fill="#010130"/>
<path d="M475.698 589.742H527.197V601.356H487.915V624.495H521.425V635.44H487.915V659.249H527.197V670.863H475.698V589.742Z" fill="#010130"/>
<path d="M488.491 14.2922C494.7 15.3595 500.853 17.0601 506.953 18.7426C524.542 23.6635 536.269 34.7715 540.898 52.4649C553.242 99.9184 556.89 148.548 558.905 197.25C561.501 259.737 562.155 322.279 558.125 384.748C555.711 422.179 552.77 459.647 544.946 496.535C539.718 521.211 525.958 535.901 500.89 540.768C455.689 549.542 409.945 553.215 364.091 555.187C301.392 557.919 238.62 558.136 175.957 554.463C136.131 552.129 96.2855 548.873 57.3299 539.212C36.1821 533.966 22.731 521.012 17.9024 499.646C3.9249 437.955 0.457749 375.232 0.131002 312.256C-0.195746 248.249 -0.504341 184.224 7.06531 120.506C9.7519 97.9646 12.4022 75.459 17.975 53.3875C23.0396 33.3966 35.4742 21.0945 55.8051 16.8249C111.969 5.02939 197.849 0 280.498 0C363.147 0 419.802 2.44233 488.491 14.2922Z" fill="#010130"/>
<path d="M69.3789 98.8345H105.376V203.221H158.145V98.8345H194.124V365.664H158.145V233.633H105.376V365.664H69.3789V98.8345Z" fill="white"/>
<path d="M226.452 98.8345H261.74V287.382C261.74 306.613 263.465 319.404 266.914 325.736C270.508 332.068 277.533 335.234 288.025 335.234C298.518 335.234 305.452 332.466 308.792 326.93C312.259 321.304 313.984 309.816 313.984 292.538V98.8345H349.272V292.575C349.272 321.611 344.825 341.24 335.93 351.516C325.329 363.149 309.119 368.956 287.336 368.956C263.338 368.956 246.438 361.466 236.635 346.487C229.828 336.247 226.434 316.546 226.434 287.382V98.8345H226.452Z" fill="white"/>
<path d="M415.333 334.889C430.146 334.889 440.402 331.723 446.084 325.391C451.765 319.077 454.597 307.608 454.597 291C454.597 274.392 451.638 262.017 445.739 255.251C439.93 248.322 429.801 244.867 415.333 244.867V334.889ZM415.333 216.337C429.347 216.337 439.059 213.116 444.541 206.676C449.986 199.874 452.709 187.933 452.709 170.891C452.709 142.09 442.272 127.689 421.432 127.689H417.058C416.132 127.689 415.551 127.743 415.333 127.852V216.337ZM381.605 98.8154H430.382C468.557 98.8154 487.653 122.497 487.653 169.86C487.653 187.951 485.166 201.375 480.211 210.113C475.219 218.87 466.469 225.491 453.907 229.996C468.321 235.767 478.159 243.112 483.478 252.103C488.906 260.986 491.629 274.338 491.629 292.212C491.629 341.185 470.626 365.645 428.639 365.645H381.605V98.8335V98.8154Z" fill="white"/>
<path d="M482.587 437.773C482.587 418.235 392.096 402.387 280.494 402.387C168.892 402.387 78.4189 418.253 78.4189 437.773C78.4189 457.294 168.874 473.142 280.494 473.142C392.115 473.142 482.587 457.33 482.587 437.773Z" fill="white"/>
</svg>
