<?xml version="1.0" encoding="UTF-8" standalone="no"?>
<!-- Created with Inkscape (http://www.inkscape.org/) -->

<svg
   version="1.1"
   id="svg1"
   width="270.86667"
   height="216.37334"
   viewBox="0 0 270.86667 216.37334"
   sodipodi:docname="IAGE_LOGO_V_CMJN.eps"
   xmlns:inkscape="http://www.inkscape.org/namespaces/inkscape"
   xmlns:sodipodi="http://sodipodi.sourceforge.net/DTD/sodipodi-0.dtd"
   xmlns="http://www.w3.org/2000/svg"
   xmlns:svg="http://www.w3.org/2000/svg">
  <defs
     id="defs1" />
  <sodipodi:namedview
     id="namedview1"
     pagecolor="#ffffff"
     bordercolor="#000000"
     borderopacity="0.25"
     inkscape:showpageshadow="2"
     inkscape:pageopacity="0.0"
     inkscape:pagecheckerboard="0"
     inkscape:deskcolor="#d1d1d1">
    <inkscape:page
       x="0"
       y="0"
       inkscape:label="1"
       id="page1"
       width="270.86667"
       height="216.37334"
       margin="0"
       bleed="0" />
  </sodipodi:namedview>
  <g
     id="g1"
     inkscape:groupmode="layer"
     inkscape:label="1">
    <g
       id="group-R5">
      <path
         id="path2"
         d="m 1386.69,1373.51 c -25.55,0 -46.31,-20.8 -46.31,-46.47 v -281.72 c 0,-25.69 20.76,-46.484 46.31,-46.484 25.61,0 46.32,20.794 46.32,46.484 v 281.72 c 0,25.67 -20.71,46.47 -46.32,46.47"
         style="fill:#2d2f7c;fill-opacity:1;fill-rule:nonzero;stroke:none"
         transform="matrix(0.13333333,0,0,-0.13333333,0,216.37333)" />
      <path
         id="path3"
         d="m 1201.27,1574.2 c -25.58,0 -46.32,-20.82 -46.32,-46.51 V 844 c 0,-25.645 20.74,-46.484 46.32,-46.484 25.6,0 46.35,20.839 46.35,46.484 v 683.69 c 0,25.69 -20.75,46.51 -46.35,46.51"
         style="fill:#2d2f7c;fill-opacity:1;fill-rule:nonzero;stroke:none"
         transform="matrix(0.13333333,0,0,-0.13333333,0,216.37333)" />
      <path
         id="path4"
         d="m 1015.83,1622.81 c -25.525,0 -46.31,-20.8 -46.31,-46.47 V 795.406 c 0,-25.664 20.785,-46.484 46.31,-46.484 25.57,0 46.31,20.82 46.31,46.484 v 780.934 c 0,25.67 -20.74,46.47 -46.31,46.47"
         style="fill:#2d2f7c;fill-opacity:1;fill-rule:nonzero;stroke:none"
         transform="matrix(0.13333333,0,0,-0.13333333,0,216.37333)" />
      <path
         id="path5"
         d="m 830.195,1574.2 c -25.566,0 -46.316,-20.82 -46.316,-46.51 V 844 c 0,-25.645 20.75,-46.484 46.316,-46.484 25.567,0 46.309,20.839 46.309,46.484 v 683.69 c 0,25.69 -20.742,46.51 -46.309,46.51"
         style="fill:#52c6dd;fill-opacity:1;fill-rule:nonzero;stroke:none"
         transform="matrix(0.13333333,0,0,-0.13333333,0,216.37333)" />
      <path
         id="path6"
         d="m 644.766,1373.51 c -25.547,0 -46.258,-20.8 -46.258,-46.47 v -281.72 c 0,-25.69 20.711,-46.484 46.258,-46.484 25.605,0 46.328,20.794 46.328,46.484 v 281.72 c 0,25.67 -20.723,46.47 -46.328,46.47"
         style="fill:#52c6dd;fill-opacity:1;fill-rule:nonzero;stroke:none"
         transform="matrix(0.13333333,0,0,-0.13333333,0,216.37333)" />
      <path
         id="path7"
         d="m 1389.32,295.18 -79.97,0.011 c -36.98,0 -73.96,-0.011 -110.94,-0.062 -5.44,0 -11.11,-0.41 -17.36,-1.219 -21.74,-2.82 -34.38,-18.09 -33.79,-40.859 0.56,-22.43 14.16,-37.563 35.45,-39.5 4.25,-0.371 8.43,-0.41 12.36,-0.41 l 147.26,-0.032 c -7.37,-50.988 -29.24,-84.539 -68.27,-105.07 C 1224.13,81.7695 1167.43,74.7617 1104.19,87.0703 1040.71,99.4102 997.41,134.43 975.488,191.172 959.895,231.5 957.102,276.5 967.156,324.879 c 10.532,50.641 37.874,88.519 81.274,112.562 23.63,13.098 50.29,20.86 81.51,23.7 46.12,4.218 84.11,-0.082 118.62,-13.282 7.68,-2.937 14.57,-6.039 21,-9.449 15.68,-8.351 28.07,-19.762 39.12,-30.82 3.23,-3.231 6.51,-7.031 9.9,-10.949 9.94,-11.493 21.2,-24.512 35.59,-29.903 3.99,-1.5 8.24,-2.258 12.62,-2.258 17.22,0 34.65,11.852 41.44,28.149 9.53,22.973 -8.39,46.262 -18.02,58.769 -11.49,14.954 -26.33,28.59 -44.13,40.551 -42.22,28.371 -89.14,44.449 -143.41,49.18 -55.15,4.793 -100.43,1.402 -143.25,-10.59 C 981.809,508.832 925.93,463.988 893.328,397.289 869.902,349.27 862.336,294.43 870.215,229.629 882.18,131.25 934.855,62.4219 1026.81,25.0391 1067.68,8.42969 1111.74,0 1157.74,0 c 31.03,0 63.87,3.83203 97.64,11.3789 112.65,25.2617 183.67,114.0901 185.33,231.8831 0.28,18.367 -3.5,30.886 -11.87,39.386 -8.4,8.543 -20.94,12.524 -39.52,12.532"
         style="fill:#2d2f7c;fill-opacity:1;fill-rule:nonzero;stroke:none"
         transform="matrix(0.13333333,0,0,-0.13333333,0,216.37333)" />
      <path
         id="path8"
         d="m 400.254,213.121 c 54.258,97.719 109.875,197.91 109.875,197.91 0,0 55.523,-100.152 109.726,-197.91 z M 784.973,102.18 c -2.246,4.172 -192.961,341.269 -222.121,392.652 -6.075,10.727 -11.59,18.918 -17.356,25.77 -9.551,11.367 -22.019,17.628 -35.074,17.628 -13.402,0 -25.996,-6.519 -35.422,-18.371 C 468.328,511.5 462.043,502.031 455.781,490.922 397.742,387.832 230.344,89.8984 221.863,73.9609 214.395,59.8984 213.672,44.2891 219.91,31.1719 225.801,18.7305 237.344,9.98047 251.555,7.17969 c 3.008,-0.59766 6.035,-0.89063 8.933,-0.89063 11.336,0 27.434,4.60934 39.617,26.54294 6.321,11.3282 27.446,49.3399 53.997,97.18 h 311.894 c 29.172,-52.5706 51.824,-93.3323 55.606,-99.93 8.543,-15.0625 22.683,-23.70309 38.789,-23.70309 4.265,0 8.625,0.60937 12.961,1.80078 13.726,3.76171 24.753,13.69141 30.281,27.26951 5.683,14.0196 3.664,28.9727 -5.988,44.4297 -4.461,7.1328 -8.641,14.8399 -12.672,22.3011"
         style="fill:#2d2f7c;fill-opacity:1;fill-rule:nonzero;stroke:none"
         transform="matrix(0.13333333,0,0,-0.13333333,0,216.37333)" />
      <path
         id="path9"
         d="M 45.6836,538.121 C 20.4609,538.121 0,518.398 0,494.082 V 50.332 C 0,26 20.4609,6.28906 45.6836,6.28906 70.957,6.28906 91.3086,26 91.3086,50.332 v 443.75 c 0,24.316 -20.3516,44.039 -45.625,44.039"
         style="fill:#2d2f7c;fill-opacity:1;fill-rule:nonzero;stroke:none"
         transform="matrix(0.13333333,0,0,-0.13333333,0,216.37333)" />
      <path
         id="path10"
         d="M 1991.81,94.8594 H 1668.92 V 236.621 h 249.1 c 21.76,0 39.45,18.238 39.45,40.879 0,22.602 -17.69,40.922 -39.45,40.922 h -249.1 v 130.43 h 312.91 c 21.89,0 39.68,18.359 39.68,41.148 0,22.719 -17.79,41.148 -39.68,41.148 h -357.76 c -24.76,0 -44.86,-19.359 -44.86,-43.25 V 55.832 c 0,-23.8828 20.1,-43.25 44.86,-43.25 h 367.74 c 21.87,0 39.68,18.3477 39.68,41.1172 0,22.7227 -17.81,41.1602 -39.68,41.1602"
         style="fill:#2d2f7c;fill-opacity:1;fill-rule:nonzero;stroke:none"
         transform="matrix(0.13333333,0,0,-0.13333333,0,216.37333)" />
    </g>
  </g>
</svg>
