<?xml version="1.0" encoding="UTF-8" standalone="no"?>
<!-- Created with Inkscape (http://www.inkscape.org/) -->

<svg
   version="1.1"
   id="svg1"
   width="377.94666"
   height="84.279999"
   viewBox="0 0 377.94666 84.279999"
   sodipodi:docname="IAGE_LOGO_H_CMJN.eps"
   xmlns:inkscape="http://www.inkscape.org/namespaces/inkscape"
   xmlns:sodipodi="http://sodipodi.sourceforge.net/DTD/sodipodi-0.dtd"
   xmlns="http://www.w3.org/2000/svg"
   xmlns:svg="http://www.w3.org/2000/svg">
  <defs
     id="defs1" />
  <sodipodi:namedview
     id="namedview1"
     pagecolor="#ffffff"
     bordercolor="#000000"
     borderopacity="0.25"
     inkscape:showpageshadow="2"
     inkscape:pageopacity="0.0"
     inkscape:pagecheckerboard="0"
     inkscape:deskcolor="#d1d1d1">
    <inkscape:page
       x="0"
       y="0"
       inkscape:label="1"
       id="page1"
       width="377.94666"
       height="84.279999"
       margin="0"
       bleed="0" />
  </sodipodi:namedview>
  <g
     id="g1"
     inkscape:groupmode="layer"
     inkscape:label="1">
    <g
       id="group-R5">
      <path
         id="path2"
         d="m 2192.37,341.012 -79.98,0.019 c -36.98,0 -73.96,-0.019 -110.95,-0.058 -5.44,-0.012 -11.11,-0.414 -17.36,-1.231 -21.76,-2.812 -34.38,-18.09 -33.8,-40.871 0.57,-22.418 14.16,-37.551 35.46,-39.492 4.25,-0.379 8.43,-0.414 12.36,-0.414 l 147.28,-0.024 c -7.37,-51.011 -29.25,-84.554 -68.28,-105.093 -49.93,-26.25 -106.66,-33.27 -169.9,-20.977 -63.48,12.344 -106.79,47.375 -128.71,104.113 -15.6,40.352 -18.4,85.344 -8.34,133.735 10.53,50.648 37.88,88.527 81.29,112.586 23.63,13.097 50.29,20.84 81.52,23.699 46.13,4.207 84.12,-0.09 118.63,-13.289 7.69,-2.949 14.57,-6.039 21,-9.457 15.69,-8.34 28.08,-19.75 39.13,-30.824 3.24,-3.219 6.51,-7.028 9.91,-10.957 9.93,-11.489 21.19,-24.512 35.59,-29.899 4,-1.5 8.24,-2.254 12.62,-2.254 17.22,0 34.65,11.84 41.44,28.156 9.54,22.973 -8.38,46.266 -18.02,58.782 -11.49,14.949 -26.34,28.59 -44.14,40.547 -42.22,28.375 -89.14,44.461 -143.43,49.195 -55.15,4.785 -100.45,1.391 -143.26,-10.582 -77.64,-21.731 -133.52,-66.567 -166.11,-133.285 -23.44,-48.016 -31,-102.871 -23.13,-167.684 11.97,-98.402 64.65,-167.23 156.61,-204.6132 40.89,-16.621 84.95,-25.0585 130.96,-25.0585 31.04,0 63.88,3.8281 97.66,11.4062 112.66,25.2344 183.69,114.0935 185.35,231.8945 0.27,18.371 -3.51,30.895 -11.87,39.398 -8.39,8.547 -20.94,12.528 -39.53,12.532"
         style="fill:#2d2f7c;fill-opacity:1;fill-rule:nonzero;stroke:none"
         transform="matrix(0.13333333,0,0,-0.13333333,0,84.28)" />
      <path
         id="path3"
         d="m 1203.17,258.953 c 54.27,97.727 109.89,197.926 109.89,197.926 0,0 55.53,-100.176 109.74,-197.926 z m 384.77,-110.965 c -2.25,4.16 -192.98,341.313 -222.15,392.707 -6.07,10.715 -11.59,18.907 -17.35,25.766 -9.55,11.375 -22.02,17.641 -35.09,17.641 -13.4,0 -26,-6.524 -35.42,-18.375 -6.67,-8.372 -12.95,-17.836 -19.22,-28.965 -58.04,-103.078 -225.46,-401.059 -233.93,-417.004 -7.48,-14.063 -8.19,-29.6603 -1.96,-42.8049 5.89,-12.4414 17.43,-21.1914 31.64,-23.9843 3.01,-0.586 6.04,-0.8907 8.94,-0.8907 11.33,0 27.42,4.6016 39.62,26.5352 6.31,11.3476 27.44,49.3747 54,97.2067 h 311.93 c 29.18,-52.578 51.84,-93.3395 55.61,-99.9606 8.55,-15.0469 22.7,-23.6719 38.81,-23.6719 4.26,0 8.62,0.6055 12.95,1.7891 13.74,3.7578 24.75,13.6875 30.29,27.2656 5.68,14.0312 3.66,28.9728 -5.99,44.4418 -4.46,7.129 -8.64,14.843 -12.68,22.304"
         style="fill:#2d2f7c;fill-opacity:1;fill-rule:nonzero;stroke:none"
         transform="matrix(0.13333333,0,0,-0.13333333,0,84.28)" />
      <path
         id="path4"
         d="m 848.555,583.988 c -25.215,0 -45.672,-19.726 -45.672,-44.043 V 96.1328 c 0,-24.3359 20.457,-44.0547 45.672,-44.0547 25.273,0 45.656,19.7188 45.656,44.0547 V 539.945 c 0,24.317 -20.383,44.043 -45.656,44.043"
         style="fill:#2d2f7c;fill-opacity:1;fill-rule:nonzero;stroke:none"
         transform="matrix(0.13333333,0,0,-0.13333333,0,84.28)" />
      <path
         id="path5"
         d="M 2794.95,140.684 H 2472 v 141.754 h 249.14 c 21.76,0 39.46,18.25 39.46,40.89 0,22.61 -17.7,40.934 -39.46,40.934 H 2472 v 130.457 h 312.98 c 21.89,0 39.68,18.359 39.68,41.136 0,22.731 -17.79,41.168 -39.68,41.168 h -357.8 c -24.79,0 -44.87,-19.367 -44.87,-43.261 V 101.633 c 0,-23.8986 20.08,-43.2736 44.87,-43.2736 h 367.77 c 21.9,0 39.69,18.3711 39.69,41.1445 0,22.7341 -17.79,41.1801 -39.69,41.1801"
         style="fill:#2d2f7c;fill-opacity:1;fill-rule:nonzero;stroke:none"
         transform="matrix(0.13333333,0,0,-0.13333333,0,84.28)" />
      <path
         id="path6"
         d="m 570.098,451.797 c -18.489,0 -33.496,-15.074 -33.496,-33.637 V 214.395 c 0,-18.575 15.007,-33.614 33.496,-33.614 18.523,0 33.496,15.039 33.496,33.614 V 418.16 c 0,18.563 -14.973,33.637 -33.496,33.637"
         style="fill:#2d2f7c;fill-opacity:1;fill-rule:nonzero;stroke:none"
         transform="matrix(0.13333333,0,0,-0.13333333,0,84.28)" />
      <path
         id="path7"
         d="m 435.984,596.938 c -18.496,0 -33.511,-15.063 -33.511,-33.637 V 68.7891 c 0,-18.5547 15.015,-33.6328 33.511,-33.6328 18.508,0 33.508,15.0781 33.508,33.6328 V 563.301 c 0,18.574 -15,33.637 -33.508,33.637"
         style="fill:#2d2f7c;fill-opacity:1;fill-rule:nonzero;stroke:none"
         transform="matrix(0.13333333,0,0,-0.13333333,0,84.28)" />
      <path
         id="path8"
         d="m 301.855,632.102 c -18.476,0 -33.515,-15.055 -33.515,-33.61 V 33.6328 C 268.34,15.0781 283.379,0 301.855,0 c 18.489,0 33.497,15.0781 33.497,33.6328 V 598.492 c 0,18.555 -15.008,33.61 -33.497,33.61"
         style="fill:#2d2f7c;fill-opacity:1;fill-rule:nonzero;stroke:none"
         transform="matrix(0.13333333,0,0,-0.13333333,0,84.28)" />
      <path
         id="path9"
         d="m 167.578,596.938 c -18.496,0 -33.496,-15.063 -33.496,-33.637 V 68.7891 c 0,-18.5547 15,-33.6328 33.496,-33.6328 18.485,0 33.496,15.0781 33.496,33.6328 V 563.301 c 0,18.574 -15.011,33.637 -33.496,33.637"
         style="fill:#52c6dd;fill-opacity:1;fill-rule:nonzero;stroke:none"
         transform="matrix(0.13333333,0,0,-0.13333333,0,84.28)" />
      <path
         id="path10"
         d="M 33.457,451.797 C 14.9883,451.797 0,436.723 0,418.16 V 214.395 c 0,-18.575 14.9883,-33.614 33.457,-33.614 18.5235,0 33.4961,15.039 33.4961,33.614 V 418.16 c 0,18.563 -14.9726,33.637 -33.4961,33.637"
         style="fill:#52c6dd;fill-opacity:1;fill-rule:nonzero;stroke:none"
         transform="matrix(0.13333333,0,0,-0.13333333,0,84.28)" />
    </g>
  </g>
</svg>
